<svg width="20" height="20" viewBox="0 0 20 20" fill="none" xmlns="http://www.w3.org/2000/svg">
<g id="history" clip-path="url(#clip0_770_454)">
<path id="Vector" d="M10.8333 2.5C6.69167 2.5 3.33334 5.85833 3.33334 10H0.833336L4.075 13.2417L4.13334 13.3583L7.5 10H5C5 6.775 7.60834 4.16667 10.8333 4.16667C14.0583 4.16667 16.6667 6.775 16.6667 10C16.6667 13.225 14.0583 15.8333 10.8333 15.8333C9.225 15.8333 7.76667 15.175 6.71667 14.1167L5.53334 15.3C6.89167 16.6583 8.75834 17.5 10.8333 17.5C14.975 17.5 18.3333 14.1417 18.3333 10C18.3333 5.85833 14.975 2.5 10.8333 2.5ZM10 6.66667V10.8333L13.5417 12.9333L14.1833 11.8667L11.25 10.125V6.66667H10Z" fill="#3F8FAA"/>
</g>
<defs>
<clipPath id="clip0_770_454">
<rect width="20" height="20" fill="white"/>
</clipPath>
</defs>
</svg>
