<svg width="20" height="20" viewBox="0 0 20 20" fill="none" xmlns="http://www.w3.org/2000/svg">
<g id="tag_faces" clip-path="url(#clip0_775_115)">
<path id="Vector" opacity="0.3" d="M10 3.3335C6.31671 3.3335 3.33337 6.31683 3.33337 10.0002C3.33337 13.6835 6.31671 16.6668 10 16.6668C13.6834 16.6668 16.6667 13.6835 16.6667 10.0002C16.6667 6.31683 13.6834 3.3335 10 3.3335ZM12.9167 6.66683C13.6084 6.66683 14.1667 7.22516 14.1667 7.91683C14.1667 8.6085 13.6084 9.16683 12.9167 9.16683C12.225 9.16683 11.6667 8.6085 11.6667 7.91683C11.6667 7.22516 12.225 6.66683 12.9167 6.66683ZM7.08337 6.66683C7.77504 6.66683 8.33337 7.22516 8.33337 7.91683C8.33337 8.6085 7.77504 9.16683 7.08337 9.16683C6.39171 9.16683 5.83337 8.6085 5.83337 7.91683C5.83337 7.22516 6.39171 6.66683 7.08337 6.66683Z" fill="#3C833B"/>
<path id="Vector_2" d="M7.08337 9.1665C7.77373 9.1665 8.33337 8.60686 8.33337 7.9165C8.33337 7.22615 7.77373 6.6665 7.08337 6.6665C6.39302 6.6665 5.83337 7.22615 5.83337 7.9165C5.83337 8.60686 6.39302 9.1665 7.08337 9.1665Z" fill="#3C833B"/>
<path id="Vector_3" d="M13.2584 11.6665C12.5 12.9998 11.5 13.9998 10 13.9998C8.50003 13.9998 7.50003 12.9998 6.7417 11.6665" stroke="#3C833B" stroke-width="1.5"/>
<path id="Vector_4" d="M12.9166 9.1665C13.607 9.1665 14.1666 8.60686 14.1666 7.9165C14.1666 7.22615 13.607 6.6665 12.9166 6.6665C12.2263 6.6665 11.6666 7.22615 11.6666 7.9165C11.6666 8.60686 12.2263 9.1665 12.9166 9.1665Z" fill="#3C833B"/>
<path id="Vector_5" d="M9.99163 1.6665C5.39163 1.6665 1.66663 5.39984 1.66663 9.99984C1.66663 14.5998 5.39163 18.3332 9.99163 18.3332C14.6 18.3332 18.3333 14.5998 18.3333 9.99984C18.3333 5.39984 14.6 1.6665 9.99163 1.6665ZM9.99996 16.6665C6.31663 16.6665 3.33329 13.6832 3.33329 9.99984C3.33329 6.3165 6.31663 3.33317 9.99996 3.33317C13.6833 3.33317 16.6666 6.3165 16.6666 9.99984C16.6666 13.6832 13.6833 16.6665 9.99996 16.6665Z" fill="#3C833B"/>
</g>
<defs>
<clipPath id="clip0_775_115">
<rect width="20" height="20" fill="white"/>
</clipPath>
</defs>
</svg>
