<svg width="20" height="20" viewBox="0 0 20 20" fill="none" xmlns="http://www.w3.org/2000/svg">
<g id="tag_faces" clip-path="url(#clip0_770_921)">
<path id="Vector" opacity="0.3" d="M10 3.33325C6.31667 3.33325 3.33334 6.31659 3.33334 9.99992C3.33334 13.6833 6.31667 16.6666 10 16.6666C13.6833 16.6666 16.6667 13.6833 16.6667 9.99992C16.6667 6.31659 13.6833 3.33325 10 3.33325ZM12.9167 6.66659C13.6083 6.66659 14.1667 7.22492 14.1667 7.91658C14.1667 8.60825 13.6083 9.16658 12.9167 9.16658C12.225 9.16658 11.6667 8.60825 11.6667 7.91658C11.6667 7.22492 12.225 6.66659 12.9167 6.66659ZM7.08334 6.66659C7.775 6.66659 8.33334 7.22492 8.33334 7.91658C8.33334 8.60825 7.775 9.16658 7.08334 9.16658C6.39167 9.16658 5.83334 8.60825 5.83334 7.91658C5.83334 7.22492 6.39167 6.66659 7.08334 6.66659ZM10 14.5833C8.05834 14.5833 6.40834 13.3666 5.74167 11.6666H14.2583C13.5917 13.3666 11.9417 14.5833 10 14.5833Z" fill="#3F8FAA"/>
<path id="Vector_2" d="M7.08334 9.16675C7.77369 9.16675 8.33334 8.6071 8.33334 7.91675C8.33334 7.22639 7.77369 6.66675 7.08334 6.66675C6.39298 6.66675 5.83334 7.22639 5.83334 7.91675C5.83334 8.6071 6.39298 9.16675 7.08334 9.16675Z" fill="#3F8FAA"/>
<path id="Vector_3" d="M10 14.5834C11.9417 14.5834 13.5917 13.3667 14.2583 11.6667H5.74167C6.40834 13.3667 8.05834 14.5834 10 14.5834Z" fill="#3F8FAA"/>
<path id="Vector_4" d="M12.9167 9.16675C13.607 9.16675 14.1667 8.6071 14.1667 7.91675C14.1667 7.22639 13.607 6.66675 12.9167 6.66675C12.2263 6.66675 11.6667 7.22639 11.6667 7.91675C11.6667 8.6071 12.2263 9.16675 12.9167 9.16675Z" fill="#3F8FAA"/>
<path id="Vector_5" d="M9.99166 1.66675C5.39166 1.66675 1.66666 5.40008 1.66666 10.0001C1.66666 14.6001 5.39166 18.3334 9.99166 18.3334C14.6 18.3334 18.3333 14.6001 18.3333 10.0001C18.3333 5.40008 14.6 1.66675 9.99166 1.66675ZM10 16.6667C6.31666 16.6667 3.33333 13.6834 3.33333 10.0001C3.33333 6.31675 6.31666 3.33341 10 3.33341C13.6833 3.33341 16.6667 6.31675 16.6667 10.0001C16.6667 13.6834 13.6833 16.6667 10 16.6667Z" fill="#3F8FAA"/>
</g>
<defs>
<clipPath id="clip0_770_921">
<rect width="20" height="20" fill="white"/>
</clipPath>
</defs>
</svg>
